<svg xmlns="http://www.w3.org/2000/svg" viewBox="0 0 600.92 281.32"><defs><style>.cls-1{fill:none;stroke:#f0d1bf;stroke-miterlimit:10;stroke-width:4px;}</style></defs><title>Asset 2</title><g id="Layer_2" data-name="Layer 2"><g id="Layer_1-2" data-name="Layer 1"><path class="cls-1" d="M2.81,237.82s298,5,595,0c0,0,2.5,1.5,0,4.5,0,0-162.5,25-169.5,37H167.81"/><path class="cls-1" d="M3.11,238.16s-2.5,1.5,0,4.5c0,0,158.5,25,165.5,37"/><path class="cls-1" d="M399.84,110.82s-21.67-11.66-16.26-32.38c0,0,9.48-23.32,9.48-29.15s-.9-17.48-9.93-25.9c0,0,21.67,11,21.67,27.2,0,0,.45,5.83-7.67,25.26C388.75,95.87,399.84,110.82,399.84,110.82Z"/><path class="cls-1" d="M197.76,112.63S176.09,101,181.51,80.25c0,0,9.48-23.31,9.48-29.14s-.91-17.49-9.93-25.91c0,0,21.66,11,21.66,27.2,0,0,.46,5.83-7.67,25.26C186.68,97.68,197.76,112.63,197.76,112.63Z"/><path class="cls-1" d="M303.76,95.63S282.09,84,287.51,63.25c0,0,9.48-23.31,9.48-29.14s-.91-17.49-9.93-25.91c0,0,21.66,11,21.66,27.2,0,0,.46,5.83-7.67,25.26C292.68,80.68,303.76,95.63,303.76,95.63Z"/></g></g></svg>